<svg xmlns="http://www.w3.org/2000/svg" width="246" height="42" viewBox="0 0 246 42" fill="none">
  <path d="M138.954 0.500061H131.58L121.87 41.5001H129.244L138.954 0.500061Z" fill="url(#paint0_linear_0_1415)"/>
  <path d="M126.501 21.9543L133.166 24.9515L129.244 41.5H121.87L126.501 21.9543Z" fill="url(#paint1_linear_0_1415)"/>
  <path d="M175.22 9.68259H168.204V33.7171H175.22V9.68259Z" fill="#200B34"/>
  <path d="M105.059 9.68259H98.043V33.7171H105.059V9.68259Z" fill="#200B34"/>
  <path d="M80.4958 9.68259V16.7516H92.4724V9.68259H80.4958Z" fill="#200B34"/>
  <path d="M214.504 9.68259V16.7516H227.182V9.68259H214.504Z" fill="#200B34"/>
  <path d="M214.504 26.6481V33.7171H227.182V26.6481H214.504Z" fill="#200B34"/>
  <path d="M214.504 18.1653V25.2343H225.779V18.1653H214.504Z" fill="#200B34"/>
  <path d="M80.4958 26.6481V33.7171H92.4724V26.6481H80.4958Z" fill="#200B34"/>
  <path d="M41.2617 9.68259H34.2456V33.7171H41.2617V9.68259Z" fill="#200B34"/>
  <path d="M34.196 18.8722H25.8818V9.68259H18.6482V33.7171H25.8818V25.2343H34.196V18.8722Z" fill="#1F1030"/>
  <path d="M34.196 18.8723L41.2122 25.2343V33.7171H34.196V18.8723Z" fill="url(#paint2_linear_0_1415)"/>
  <path d="M161.89 9.68259H154.874V33.7171H161.89V9.68259Z" fill="#200B34"/>
  <path d="M154.874 18.8722H146.454V9.68259H139.438V33.7171H146.454V25.2343H154.874V18.8722Z" fill="#1F1030"/>
  <path d="M154.874 18.8723L161.89 25.2343V33.7171H154.874V18.8723Z" fill="url(#paint3_linear_0_1415)"/>
  <path d="M69.9784 33.7171H62.5413L53.8413 9.68259H60.8575L69.9784 33.7171Z" fill="#1F1030"/>
  <path d="M44.7202 33.7171H52.1503L60.8573 9.68259H53.8412L44.7202 33.7171Z" fill="url(#paint4_linear_0_1415)"/>
  <path d="M179.43 9.68259H186.861L195.568 33.7171H188.551L179.43 9.68259Z" fill="#1F1030"/>
  <path d="M204.688 9.68259H197.251L188.551 33.7171H195.567L204.688 9.68259Z" fill="url(#paint5_linear_0_1415)"/>
  <path d="M80.5027 9.68259V33.7171L73.4866 27.2914V15.5569L80.5027 9.68259Z" fill="url(#paint6_linear_0_1415)"/>
  <path d="M214.511 9.68259V33.7171L207.495 27.2914V15.5569L214.511 9.68259Z" fill="url(#paint7_linear_0_1415)"/>
  <path d="M113.479 9.68259H121.927L109.985 22.0109L121.33 33.7171H113.507L102.085 21.9331L113.479 9.68259Z" fill="url(#paint8_linear_0_1415)"/>
  <path d="M175.22 19.5791H168.204V12.5102" fill="url(#paint9_linear_0_1415)"/>
  <path d="M14.4673 12.6587V17.2464L4.86219 22.1311L14.4673 27.0228V31.5752L0 24.0468V20.1871L14.4673 12.6587Z" fill="url(#paint10_linear_0_1415)"/>
  <path d="M246 20.1871V24.0468L231.533 31.5752V27.0228L241.138 22.1311L231.533 17.2464V12.6587L246 20.1871Z" fill="url(#paint11_linear_0_1415)"/>
  <defs>
    <linearGradient id="paint0_linear_0_1415" x1="127.034" y1="20.2154" x2="133.662" y2="21.7277" gradientUnits="userSpaceOnUse">
      <stop stop-color="#1F1030"/>
      <stop offset="0.51" stop-color="#837A8F"/>
      <stop offset="1" stop-color="#1F1030"/>
    </linearGradient>
    <linearGradient id="paint1_linear_0_1415" x1="127.062" y1="23.4388" x2="127.681" y2="36.5018" gradientUnits="userSpaceOnUse">
      <stop stop-color="#796D86"/>
      <stop offset="1" stop-color="#28153B"/>
    </linearGradient>
    <linearGradient id="paint2_linear_0_1415" x1="36.1746" y1="19.6286" x2="37.3849" y2="27.324" gradientUnits="userSpaceOnUse">
      <stop stop-color="#796D86"/>
      <stop offset="1" stop-color="#2B1A3E"/>
    </linearGradient>
    <linearGradient id="paint3_linear_0_1415" x1="158.382" y1="21.6079" x2="158.382" y2="30.8966" gradientUnits="userSpaceOnUse">
      <stop stop-color="#766983"/>
      <stop offset="1" stop-color="#322145"/>
    </linearGradient>
    <linearGradient id="paint4_linear_0_1415" x1="56.6898" y1="11.1529" x2="48.706" y2="32.6532" gradientUnits="userSpaceOnUse">
      <stop stop-color="#746782"/>
      <stop offset="1" stop-color="#1A0C26"/>
    </linearGradient>
    <linearGradient id="paint5_linear_0_1415" x1="196.62" y1="10.4672" x2="196.62" y2="33.0738" gradientUnits="userSpaceOnUse">
      <stop stop-color="#736980"/>
      <stop offset="1" stop-color="#332645"/>
    </linearGradient>
    <linearGradient id="paint6_linear_0_1415" x1="77.0859" y1="13.0191" x2="76.9719" y2="26.8107" gradientUnits="userSpaceOnUse">
      <stop stop-color="#857B92"/>
      <stop offset="1" stop-color="#241734"/>
    </linearGradient>
    <linearGradient id="paint7_linear_0_1415" x1="211.003" y1="13.4503" x2="211.003" y2="29.1081" gradientUnits="userSpaceOnUse">
      <stop stop-color="#736980"/>
      <stop offset="1" stop-color="#332645"/>
    </linearGradient>
    <linearGradient id="paint8_linear_0_1415" x1="112.006" y1="9.65431" x2="112.006" y2="33.4555" gradientUnits="userSpaceOnUse">
      <stop stop-color="#897E95"/>
      <stop offset="1" stop-color="#200B34"/>
    </linearGradient>
    <linearGradient id="paint9_linear_0_1415" x1="171.579" y1="13.2524" x2="171.672" y2="17.5786" gradientUnits="userSpaceOnUse">
      <stop stop-color="#736980"/>
      <stop offset="1" stop-color="#332645"/>
    </linearGradient>
    <linearGradient id="paint10_linear_0_1415" x1="7.23364" y1="15.6064" x2="7.23364" y2="29.8787" gradientUnits="userSpaceOnUse">
      <stop stop-color="#71677F"/>
      <stop offset="0.99" stop-color="#22192D"/>
    </linearGradient>
    <linearGradient id="paint11_linear_0_1415" x1="238.858" y1="14.6168" x2="238.494" y2="29.419" gradientUnits="userSpaceOnUse">
      <stop stop-color="#8A8096"/>
      <stop offset="0.99" stop-color="#190827"/>
    </linearGradient>
  </defs>
</svg>